<svg width="70" height="60" viewBox="0 0 70 60" fill="none" xmlns="http://www.w3.org/2000/svg">
<path d="M31.4892 2.56375C31.864 3.1712 32.117 3.84748 32.2338 4.55397C32.3505 5.26047 32.3288 5.98335 32.1698 6.68133C32.0108 7.37932 31.7176 8.03874 31.3071 8.62196C30.8965 9.20517 30.3766 9.70076 29.7769 10.0804C23.2233 14.2156 18.017 20.2145 14.8077 27.3284C18.0486 27.0538 21.2959 27.7766 24.1246 29.4023C26.9534 31.028 29.2319 33.4807 30.662 36.4397C32.0922 39.3987 32.6073 42.7261 32.1401 45.9865C31.6729 49.2469 30.2451 52.2886 28.0435 54.7135C25.8419 57.1384 22.9691 58.8337 19.8008 59.5775C16.6325 60.3213 13.3164 60.079 10.2863 58.8823C7.25616 57.6856 4.65318 55.5902 2.81789 52.8703C0.9826 50.1504 0.000471371 46.9327 0 43.6381V43.4908C0.00585528 43.0685 0.0238115 42.6465 0.0538461 42.2253C0.102308 41.4071 0.199231 40.2616 0.387692 38.8543C0.764615 36.056 1.50231 32.1995 2.99385 27.8684C5.96615 19.1953 11.9861 8.47671 24.0692 0.829138C24.6689 0.449482 25.3364 0.19319 26.0339 0.0748943C26.7313 -0.0434015 27.4448 -0.0213839 28.1339 0.13969C28.8229 0.300764 29.4738 0.597739 30.0495 1.01366C30.6252 1.42958 31.1145 1.9563 31.4892 2.56375ZM69.1815 2.56375C69.5563 3.1712 69.8093 3.84748 69.9261 4.55397C70.0428 5.26047 70.0211 5.98335 69.8621 6.68133C69.7031 7.37932 69.4099 8.03874 68.9994 8.62196C68.5888 9.20517 68.0688 9.70076 67.4692 10.0804C60.9156 14.2156 55.7093 20.2145 52.5 27.3284C55.7409 27.0538 58.9882 27.7766 61.8169 29.4023C64.6457 31.028 66.9242 33.4807 68.3543 36.4397C69.7845 39.3987 70.2996 42.7261 69.8324 45.9865C69.3652 49.2469 67.9374 52.2886 65.7358 54.7135C63.5342 57.1384 60.6614 58.8337 57.4931 59.5775C54.3248 60.3213 51.0087 60.079 47.9786 58.8823C44.9485 57.6856 42.3455 55.5902 40.5102 52.8703C38.6749 50.1504 37.6928 46.9327 37.6923 43.6381V43.4908C37.6982 43.0685 37.7161 42.6465 37.7461 42.2253C37.7946 41.4071 37.8915 40.2616 38.08 38.8543C38.4569 36.056 39.1946 32.1995 40.6861 27.8684C43.6584 19.1953 49.6785 8.47671 61.7615 0.829138C62.3612 0.449482 63.0287 0.19319 63.7262 0.0748943C64.4236 -0.0434015 65.1371 -0.0213839 65.8262 0.13969C66.5152 0.300764 67.1661 0.597739 67.7418 1.01366C68.3175 1.42958 68.8067 1.9563 69.1815 2.56375Z" fill="#FFFBFC"/>
</svg>
